# xmcd
#
# Track frame offsets:
#	150
#	23102
#	53431
#	56772
#	72386
#	97277
#	100748
#	127704
#	130082
#	149555
#	165408
#	192500
#	210262
#	238983
#	264689
#	284034
#
# Disc length: 4332 seconds
#
# Revision: 0
# Processed by: cddbd v1.5.2PL0 Copyright (c) Steve Scherf et al.
# Submitted via: dBpowerAMP V4.0
#
DISCID=f210ea10
DTITLE=Cleve Francis and Friends - Story Time Live at the Birchmere
DYEAR=2006
DGENRE=Country
TTITLE0=City Of New Orleans
TTITLE1=Taxi
TTITLE2=The Only Explanation intro
TTITLE3=The Only Explanation
TTITLE4=Desperado
TTITLE5=Baloney Again Intro
TTITLE6=Baloney Again
TTITLE7=Two Names On An Overpass Intro
TTITLE8=Two Names On An Overpass
TTITLE9=Lovelight
TTITLE10=Wake Up, Little Sparrow
TTITLE11=Better Off With The Blues
TTITLE12=Wait In Vain
TTITLE13=Rainy Night In Georgia
TTITLE14=Walkin'
TTITLE15=You Send Me
EXTD=
EXTT0=
EXTT1=
EXTT2=
EXTT3=
EXTT4=
EXTT5=
EXTT6=
EXTT7=
EXTT8=
EXTT9=
EXTT10=
EXTT11=
EXTT12=
EXTT13=
EXTT14=
EXTT15=
PLAYORDER=
